<svg width="24" height="24" viewBox="0 0 24 24" fill="none" stroke="currentColor" stroke-width="1.5" stroke-linecap="round" stroke-linejoin="round">
  <!-- Square boundary -->
  <rect x="2" y="2" width="20" height="20" rx="1" stroke-width="1" opacity="0.3"/>
  
  <!-- Clear wave pattern within square -->
  <path d="M4 8c1.5-1.5 3-1.5 4.5-1.5s3 0 4.5 1.5 3 1.5 4.5 1.5 3 0 4.5-1.5" opacity="0.9"/>
  <path d="M4 12c1.5-1.5 3-1.5 4.5-1.5s3 0 4.5 1.5 3 1.5 4.5 1.5 3 0 4.5-1.5" opacity="0.7"/>
  <path d="M4 16c1.5-1.5 3-1.5 4.5-1.5s3 0 4.5 1.5 3 1.5 4.5 1.5 3 0 4.5-1.5" opacity="0.5"/>
</svg> 